<svg width="489" height="85" viewBox="0 0 489 85" xmlns="http://www.w3.org/2000/svg"><title>NAP_Chinese_VerticleLockUp</title><g fill="none" fill-rule="evenodd"><path d="M321.286 62.637c-1.521 3.267-3.444 6.534-5.099 9.529 2.683.661 5.77 1.4 8.633 2.139 3.444-2.879 5.814-7.195 7.514-11.668h-11.048zm19.189 21.974c-4.742-3.15-9.796-5.173-14.806-6.728-4.92 3.733-11.182 5.95-17.936 7.117l-2.013-2.878c6.306-1.089 11.808-2.684 16.103-5.523-2.282-.7-6.62-1.828-10.825-2.605 2.639-4.045 4.697-7.857 6.441-11.357h-9.706v-2.955h11.093c.76-1.362 3.464-7.42 4.314-9.832l3.355 1.284c-1.253 2.955-2.794 6.292-3.823 8.548h19.682v2.955h-5.994c-1.79 4.2-3.803 8.829-8.007 12.796 4.786 1.633 9.796 3.383 14.269 6.494a97.4 97.4 0 0 1-2.147 2.684zM179.367 80.06c-1.968-2.177-4.115-3.85-7.112-4.9l2.326-1.906c2.953.934 5.233 2.645 7.381 4.901l-2.595 1.905zm-7.917-14.117v-2.839h9.036v-5.212h-7.381v-2.839h7.381V49.85h3.398v5.203h7.918v2.839h-7.918v5.212h9.528v2.839H171.45zm17.668 6.767v8.478c0 1.4-.626 2.995-2.638 3.306-1.835.467-4.206.234-5.682.311l-1.476-2.994c2.148.116 3.624.194 5.189.155.626-.039 1.208-.311 1.208-1.011V72.71h-15.163v-2.839h15.163v-3.5h3.399v3.5h5.189v2.839h-5.189zm-22.275-1.711V85h-3.399V72.36l-5.502 2.061-2.505-2.411 8.007-2.878v-7.895h-3.132c-.581 1.906-1.431 3.539-2.862 5.989l-3.131-1.439c2.639-3.772 3.668-7.039 4.16-11.434l3.264.778c-.044 1.128-.312 2.333-.492 3.267h2.193V49.85h3.399v8.548h4.025v2.839h-4.025v6.456l4.383-1.478v3.111l-4.383 1.673zM39.415 85c-1.968-2.84-4.741-4.94-8.096-6.378l2.371-2.101c3.176 1.673 5.994 3.384 8.23 6.145L39.415 85zm-6.887-30.453c-.448 1.517-.761 3.112-1.298 4.123h8.185v18.045h-3.398V61.509H25.818v15.44h-3.4V58.67h5.189c.76-1.206 1.476-2.995 1.789-4.123h-8.633v-2.839h20.263v2.839h-8.498zM26.176 82.86a20.85 20.85 0 0 1-4.339 1.945l-2.058-2.683c2.46-.778 4.473-1.478 6.039-2.917 2.371-2.139 3.221-4.823 3.221-7.895v-8.595h3.398v10.111c0 3.423-2.236 7.662-6.261 10.034zm-7.246-.622c-1.164-2.139-1.79-3.267-2.863-4.511-1.879 2.606-4.115 4.861-7.739 7.156l-2.057-2.489c3.265-1.984 6.218-4.551 7.604-7.117-1.521-1.556-3.131-3.073-5.412-4.628l2.191-1.906c2.013 1.322 3.489 2.411 4.652 3.578.716-1.517 1.253-2.995 1.521-4.55H8.686v-2.839h3.221v-5.99h-4.16v12.99c0 4.045-1.566 8.906-4.473 12.912L.68 82.705c2.594-3.461 3.847-7.428 3.847-11.123V56.103h7.38v-6.067h3.22v6.067h6.397c-.089 3.111-.627 5.523-1.387 7.001l-3.265-.895c.582-.739.85-2.217 1.118-3.267h-2.863v5.99h5.368c-.402 2.8-.894 5.483-1.879 7.817l-.85 2.022c1.029 1.089 2.908 3.461 3.847 5.367l-2.683 2.1z" fill="#1A1918"/><path d="M31.319 36.305V1.057h-4.987v26.932L5.354 1.359l-.005-.002a.836.836 0 0 0-.564-.295l-.009-.005H.325v35.248h4.841V9.468l20.989 26.493.006.003a.935.935 0 0 0 .276.221.826.826 0 0 0 .371.114l.01.006h4.501M45.009 36.3V1.053h23.017v4.928h-18.14v10.158h16.308v4.341H49.886v10.96H69.39v4.86H45.009M101.125 5.978v30.333H96.24V5.978H82.299V1.053h32.768v4.925h-13.942M124.909 22.34h17.775v-4.315h-17.775zM187.259 36.389l-5.056-11.481h-15.828l-5.244 11.481h-5.333l16.039-35.258 2.474-.155 2.474.155 15.809 35.258h-5.335zM174.313 7.426l-5.928 13.062h11.856l-5.928-13.062zM205.68 22.34h17.776v-4.315H205.68zM262.069 21.327h-14.932v14.977h-4.318V1.057h19.25c6.237 0 9.884 3.733 9.884 10.064 0 6.237-3.695 10.206-9.884 10.206m0-15.379h-14.982V16.13h14.982c2.871.011 5.574-1.607 5.574-5.009 0-3.496-2.632-4.914-5.574-5.173M300.471.31c11.76 0 19.182 8.365 19.182 18.297 0 9.619-7.213 18.293-19.285 18.293-11.658 0-19.03-8.621-19.03-18.293 0-9.88 7.581-18.297 19.133-18.297m.02 31.705c7.999 0 14.298-5.575 14.298-13.363 0-7.843-6.299-13.431-14.298-13.431-7.941 0-14.298 5.543-14.298 13.386 0 7.789 6.357 13.408 14.298 13.408M353.864 21.254l9.283 15.061h-5.811l-9.093-14.977h-11.987v14.977h-4.257V1.068h19.05c6.426 0 10.084 4.172 10.084 10.207 0 5.339-1.921 8.326-7.269 9.979m-2.815-15.295h-14.793V16.46h14.793c2.961-.309 5.585-1.736 5.585-5.469 0-2.835-2.23-4.82-5.585-5.032M391.417 6.252v30.096h-5.008V6.252h-13.795v-5.15h32.769v5.15h-13.966M418.78 36.304V1.057h23.016v4.927h-18.14v10.159h16.308v4.341h-16.308v10.96h19.504v4.86h-24.38" fill="#000"/><path d="M478.767 21.254l9.283 15.061h-5.811l-9.093-14.977H461.16v14.977h-4.258V1.068h19.051c6.425 0 10.083 4.172 10.083 10.207 0 5.339-1.921 8.326-7.269 9.979m-2.814-15.295H461.16V16.46h14.793c2.961-.309 5.585-1.736 5.585-5.469 0-2.835-2.231-4.82-5.585-5.032M472.305 64.977v17.067h13.822V85H454.86v-2.956h13.911V64.977h-16.013v-2.84h16.013V49.85h3.534v12.287h15.835v2.84h-15.835" fill="#1A1918"/></g></svg>